<svg id="Layer_1" data-name="Layer 1" xmlns="http://www.w3.org/2000/svg" viewBox="0 0 400 71.0998"><defs><style>.cls-1{fill:#fff;}</style></defs><title>Logo-White</title><g id="_Group_" data-name="&lt;Group&gt;"><g id="_Group_2" data-name="&lt;Group&gt;"><path id="_Compound_Path_" data-name="&lt;Compound Path&gt;" class="cls-1" d="M238.6379,34.991a3.6587,3.6587,0,0,0-1.8722.477,1.3951,1.3951,0,0,0-.8173,1.2068c0,.4583.4008.9543,1.2075,1.4844a10.5157,10.5157,0,0,0,3.5351,1.2982,12.7062,12.7062,0,0,1,6.7012,4.0148A9.5562,9.5562,0,0,1,249.947,49.81a7.791,7.791,0,0,1-2.5548,5.7943,14.3888,14.3888,0,0,1-8.2084,3.4641c-1.1534,0-1.93-.0145-2.3242-.0437A16.3875,16.3875,0,0,1,229.79,57.2a6.4061,6.4061,0,0,1-2.6473-2.0307,4.4058,4.4058,0,0,1-.911-2.6209,3.6956,3.6956,0,0,1,1.1166-2.7147,3.9284,3.9284,0,0,1,2.8983-1.1167,8.3517,8.3517,0,0,1,2.6455.411,7.2627,7.2627,0,0,1,1.8226.9115,7.4606,7.4606,0,0,0,3.3751,1.0036,3.4042,3.4042,0,0,0,2.0079-.5461,1.599,1.599,0,0,0,.7751-1.3237q0-.8208-1.1868-1.5036-3.9222-1.5061-7.8444-3.057-4.7877-2.553-4.7885-6.93a10.02,10.02,0,0,1,3.74-8.2573,12.3914,12.3914,0,0,1,8.0249-2.6456,14.3984,14.3984,0,0,1,4.9281.8438,8.8123,8.8123,0,0,1,3.693,2.395,5.8675,5.8675,0,0,1,1.7785,3.7407,2.7213,2.7213,0,0,1-1.14,2.1875,4.4518,4.4518,0,0,1-2.8729.9126,4.9507,4.9507,0,0,1-2.1884-.3423C239.8328,35,238.6379,34.991,238.6379,34.991Z"/></g></g><g id="_Group_3" data-name="&lt;Group&gt;"><g id="_Group_4" data-name="&lt;Group&gt;"><path id="_Compound_Path_2" data-name="&lt;Compound Path&gt;" class="cls-1" d="M338.279,31.2549a13.6476,13.6476,0,0,0-10.5348-5.0626h-.64a13.6657,13.6657,0,0,0-10.3987,4.6988,17.305,17.305,0,0,0-4.558,12.223,15.2853,15.2853,0,0,0,5.1993,11.8566,13.9238,13.9238,0,0,0,9.3923,4.0146h.7306A14.0225,14.0225,0,0,0,338.5552,54.06a16.87,16.87,0,0,0,4.0554-11.4927A16.6341,16.6341,0,0,0,338.279,31.2549Zm-4.1337,12.784c0,.0569-.0016.1156-.0046.1749-.0075.0774-.0131.1569-.019.2339-.0058.0839-.0143.166-.0228.2482-.0169.1369-.0386.2713-.0547.407-.0324.2023-.0753.4-.1217.5937a6.8365,6.8365,0,0,1-.2583.8281,6.0187,6.0187,0,0,1-.2556.5721c-.0824.1683-.1742.3305-.2725.4919a5.7531,5.7531,0,0,1-.58.7726,5.4538,5.4538,0,0,1-.458.462,4.5216,4.5216,0,0,1-.4178.3409,5.7725,5.7725,0,0,1-.6766.4356,5.8926,5.8926,0,0,1-.75.3479,6.82,6.82,0,0,1-.7765.2528c-.2259.0587-.4562.1052-.6885.1426q-.3277.05-.66.0742c-.1443.01-.2867.0115-.427.0194-.0086,0-.0162.0046-.0234.0046h-.2715a.041.041,0,0,0-.0166-.0046c-.074-.005-.1533-.0062-.2327-.0079-.0868-.0058-.1748-.01-.2627-.0173-.1266-.01-.2557-.0247-.377-.04-.2266-.0246-.4507-.0661-.6736-.1126-.2144-.0471-.426-.1045-.6341-.1672a7.0438,7.0438,0,0,1-.8806-.341c-.2136-.1009-.4259-.2114-.628-.3329a6.4651,6.4651,0,0,1-.8216-.5849c-.1126-.0949-.2188-.1943-.3219-.2955a5.8719,5.8719,0,0,1-.57-.6235,5.9913,5.9913,0,0,1-.5431-.8261c-.0688-.1264-.1379-.2558-.1976-.3828a6.7606,6.7606,0,0,1-.3277-.8488,7.6664,7.6664,0,0,1-.2218-.9566c-.0218-.1625-.045-.3241-.0627-.4856-.01-.1012-.0167-.2034-.0241-.3063-.0041-.1046-.007-.2088-.007-.3156,0-.1867.0029-.37.0039-.5563a1.5524,1.5524,0,0,1,.01-.1588c.0062-.1079.0119-.2165.0224-.324.0085-.1.019-.2.034-.2967.0184-.1512.0333-.3045.0631-.4547.0364-.1976.0731-.3942.1172-.59.0483-.2357.1138-.4679.1816-.703.0691-.2241.1426-.45.2265-.6743.1184-.3085.2449-.62.3928-.9231.1016-.2115.21-.42.3274-.6265.081-.14.1662-.2776.2523-.4138.1362-.2236.292-.439.4489-.6484a7.9177,7.9177,0,0,1,.6282-.7414c.1278-.1361.2628-.27.4036-.3948.0673-.0661.1409-.1277.2172-.1892.0926-.0774.1863-.1556.2834-.2265a6.1088,6.1088,0,0,1,.9339-.585,5.2017,5.2017,0,0,1,.69-.289,4.8316,4.8316,0,0,1,.8615-.2081,3.8767,3.8767,0,0,1,.5446-.0461.087.087,0,0,0,.0331-.0056h.1921a.0767.0767,0,0,0,.027.0056,4.0661,4.0661,0,0,1,.5235.0424,4.7236,4.7236,0,0,1,1.1743.3231,5.44,5.44,0,0,1,.72.3582,6.2623,6.2623,0,0,1,.8222.5821,6.6237,6.6237,0,0,1,.5157.4681,8.51,8.51,0,0,1,.6415.7148c.1412.184.2831.3718.4139.5623.1249.185.2478.3741.3564.5661.0748.1252.1468.2529.2148.38q.177.3269.3266.6668c.1162.2523.2184.5091.31.7656.0676.1924.13.3833.1891.5769.0779.2541.1467.5122.203.771.0541.2469.0987.4953.1389.7447.02.1472.0388.2932.0532.4386.0131.1265.0234.25.0324.3741.0085.1069.011.2157.014.3221.0017.0579.0038.1155.0017.1746C334.1509,43.7292,334.1492,43.8832,334.1453,44.0389Z"/></g></g><g id="_Group_5" data-name="&lt;Group&gt;"><g id="_Group_6" data-name="&lt;Group&gt;"><path id="_Compound_Path_3" data-name="&lt;Compound Path&gt;" class="cls-1" d="M372.0843,31.2549a13.65,13.65,0,0,0-10.5338-5.0626h-.6387a13.668,13.668,0,0,0-10.4,4.6988,17.305,17.305,0,0,0-4.558,12.223,15.2875,15.2875,0,0,0,5.1972,11.8566,13.929,13.929,0,0,0,9.3939,4.0146h.7305A14.0207,14.0207,0,0,0,372.36,54.06a16.8707,16.8707,0,0,0,4.0574-11.4927A16.6371,16.6371,0,0,0,372.0843,31.2549Zm-4.1336,12.784c0,.0569-.0013.1156-.0043.1749-.0072.0774-.0133.1569-.0194.2339-.0058.0839-.0146.166-.0231.2482-.0161.1369-.0385.2713-.0544.407-.0323.2023-.0747.4-.1216.5937a7.1156,7.1156,0,0,1-.2587.8281,6.0127,6.0127,0,0,1-.255.5721c-.0822.1683-.1744.3305-.273.4919a5.8561,5.8561,0,0,1-.5777.7726,5.4326,5.4326,0,0,1-.46.462,4.7015,4.7015,0,0,1-.4178.3409,5.96,5.96,0,0,1-1.4266.7835,6.68,6.68,0,0,1-.7761.2528c-.2262.0587-.4579.1052-.69.1426-.2168.0333-.4373.0581-.6587.0742-.1436.01-.2857.0115-.427.0194-.0085,0-.0163.0046-.0231.0046h-.27c-.003,0-.0086-.0046-.0162-.0046-.0747-.005-.1538-.0062-.2333-.0079-.0887-.0058-.1766-.01-.2644-.0173-.1259-.01-.2552-.0247-.3771-.04-.2256-.0246-.4516-.0661-.6733-.1126-.2159-.0471-.4261-.1045-.6343-.1672a7.18,7.18,0,0,1-.88-.341,7.0947,7.0947,0,0,1-.6276-.3329,6.4081,6.4081,0,0,1-.8222-.5849c-.1127-.0949-.2184-.1943-.3229-.2955a5.8889,5.8889,0,0,1-1.1117-1.45c-.0694-.1264-.1386-.2558-.1983-.3828a6.5912,6.5912,0,0,1-.3271-.8488,7.2947,7.2947,0,0,1-.2218-.9566c-.0225-.1625-.0455-.3241-.0618-.4856-.0109-.1012-.0169-.2034-.0245-.3063-.0049-.1046-.0079-.2088-.0079-.3156,0-.1867.003-.37.0046-.5563a1.3132,1.3132,0,0,1,.0109-.1588c.006-.1079.0116-.2165.0219-.324.0086-.1.0183-.2.0334-.2967.0188-.1512.0337-.3045.0612-.4547.0382-.1976.0734-.3942.1174-.59.0508-.2357.1159-.4679.1836-.703.0694-.2241.1423-.45.2263-.6743.1184-.3085.2455-.62.3931-.9231.1011-.2115.2115-.42.3288-.6265q.12-.2093.2523-.4138c.1361-.2236.291-.439.4479-.6484a7.732,7.732,0,0,1,.6275-.7414c.1276-.1361.2633-.27.4034-.3948.0678-.0661.1417-.1277.2181-.1892.0918-.0774.1862-.1556.2826-.2265a6.1,6.1,0,0,1,.9345-.585,5.17,5.17,0,0,1,.69-.289,4.8589,4.8589,0,0,1,.8615-.2081,3.8914,3.8914,0,0,1,.5459-.0461.0865.0865,0,0,0,.0332-.0056h.1907a.084.084,0,0,0,.0268.0056,4.0869,4.0869,0,0,1,.5241.0424,4.6881,4.6881,0,0,1,1.1724.3231,5.4843,5.4843,0,0,1,.7232.3582,6.2529,6.2529,0,0,1,.82.5821,6.6263,6.6263,0,0,1,.517.4681,8.8266,8.8266,0,0,1,.6407.7148c.1415.184.2835.3718.4154.5623.1251.185.2466.3741.3566.5661.0735.1252.1448.2529.2125.38q.1784.3269.3279.6668c.1152.2523.2181.5091.3091.7656.0677.1924.1293.3833.189.5769.0782.2541.1452.5122.2029.771.0541.2469.0982.4953.1391.7447q.0311.2208.0534.4386c.0127.1265.023.25.0316.3741.0093.1069.0122.2157.0152.3221.0009.0579.0026.1155.0009.1746C367.9562,43.7292,367.9553,43.8832,367.9507,44.0389Z"/></g></g><g id="_Group_7" data-name="&lt;Group&gt;"><g id="_Group_8" data-name="&lt;Group&gt;"><path id="_Path_" data-name="&lt;Path&gt;" class="cls-1" d="M267.516,58.9457a15.3085,15.3085,0,0,1-15.3067-15.308V42.0106a15.3081,15.3081,0,0,1,15.3067-15.308l-.2049.0024a15.4254,15.4254,0,0,1,8.2478,2.2813s2.0526,1.23,1.5905,4.5206a3.578,3.578,0,0,1-5.0761,2.7474c-2.2783-.9071-11.1779-2.9262-11.1779,6.5707s8.9,7.4769,11.1779,6.57a3.5778,3.5778,0,0,1,5.0761,2.7468c.4621,3.2928-1.5905,4.5194-1.5905,4.5194a15.4142,15.4142,0,0,1-8.2478,2.2837"/></g></g><g id="_Group_9" data-name="&lt;Group&gt;"><g id="_Group_10" data-name="&lt;Group&gt;"><path id="_Path_2" data-name="&lt;Path&gt;" class="cls-1" d="M308.6469,44.5918v9.6511a4.7484,4.7484,0,0,1-4.7484,4.7466h0a4.7484,4.7484,0,0,1-4.7488-4.7466V39.8437a4.3748,4.3748,0,0,0-1.64-3.5629,5.8043,5.8043,0,0,0-3.7758-1.3427,4.8511,4.8511,0,0,0-3.19,1.0656,4.2324,4.2324,0,0,0-1.5276,3.47V54.2487a4.741,4.741,0,0,1-9.482,0V17.6593a4.741,4.741,0,0,1,9.482,0V29.2444A14.44,14.44,0,0,1,292.72,27.37a16.2183,16.2183,0,0,1,4.6808-.7175,11.6708,11.6708,0,0,1,7.6812,2.6382,9.77,9.77,0,0,1,3.565,7.9148Z"/></g></g><g id="_Group_11" data-name="&lt;Group&gt;"><g id="_Group_12" data-name="&lt;Group&gt;"><path id="_Path_3" data-name="&lt;Path&gt;" class="cls-1" d="M389.3245,54.2487a4.74,4.74,0,0,1-4.74,4.7408h0a4.7394,4.7394,0,0,1-4.7417-4.7408V17.6593a4.74,4.74,0,0,1,4.7417-4.7407h0a4.7409,4.7409,0,0,1,4.74,4.7407Z"/></g></g><g id="_Group_13" data-name="&lt;Group&gt;"><g id="_Group_14" data-name="&lt;Group&gt;"><path id="_Compound_Path_4" data-name="&lt;Compound Path&gt;" class="cls-1" d="M105.898,17.8846a7.0145,7.0145,0,0,1,2.591-4.4947,7.2263,7.2263,0,0,1,8.7078-.3081,6.4617,6.4617,0,0,1,2.5675,3.7752l7.0346,22.4947,7.8065-22.4947a6.8772,6.8772,0,0,1,2.85-3.8269,7.7459,7.7459,0,0,1,4.29-1.3617,6.55,6.55,0,0,1,4.3142,1.49,6.9147,6.9147,0,0,1,2.4129,4.7258l5.7016,34.307.1806,1.834a5.6832,5.6832,0,0,1-1.5151,3.9429,4.17,4.17,0,0,1-3.1842,1.4629,5.4242,5.4242,0,0,1-3.8539-1.6933,7.139,7.139,0,0,1-2.0542-4.5194l-3.44-21.4678L133.118,55.22a5.6848,5.6848,0,0,1-2.2106,3.1077,6.0707,6.0707,0,0,1-3.5418,1.1037,5.9688,5.9688,0,0,1-5.5994-4.2114l-7.6513-22.9052L110.9307,53.732a5.4026,5.4026,0,0,1-1.8485,4.3142,5.5986,5.5986,0,0,1-3.8,1.3852,5.5082,5.5082,0,0,1-3.6482-1.3352,4.6639,4.6639,0,0,1-1.7461-3.6974,5.305,5.305,0,0,1,.1287-1.0279q.1286-.6155.2822-1.1793Z"/></g></g><g id="_Group_15" data-name="&lt;Group&gt;"><g id="_Group_16" data-name="&lt;Group&gt;"><path id="_Compound_Path_5" data-name="&lt;Compound Path&gt;" class="cls-1" d="M46.01,20.2917Q39.64,12.8462,29.0613,12.845l-13.0679.0035a5.3168,5.3168,0,0,0-5.3179,5.3154V53.8308a5.3173,5.3173,0,0,0,5.3179,5.3161l14.1463.0746q10.22,0,16.1779-7.0358a23.41,23.41,0,0,0,5.3932-15.6648A24.1439,24.1439,0,0,0,46.01,20.2917ZM36.3542,45.0465a11.1754,11.1754,0,0,1-8.32,4.6225H21.3065V22.9116H30.14a9.094,9.094,0,0,1,6.5229,4.6734,16.204,16.204,0,0,1,2.3113,8.68A14.6512,14.6512,0,0,1,36.3542,45.0465Z"/></g></g><g id="_Group_17" data-name="&lt;Group&gt;"><g id="_Group_18" data-name="&lt;Group&gt;"><path id="_Path_4" data-name="&lt;Path&gt;" class="cls-1" d="M180.3083,41.0721a5.0386,5.0386,0,0,0,0-10.0771H169.083V22.8471h11.2253a5.0384,5.0384,0,0,0,0-10.0768h-16.405a5.0381,5.0381,0,0,0-5.039,5.039c0,.06.016.1179.0179.1776-.0019.06-.0179.1173-.0179.177V53.8308c0,.06.016.1143.0179.1748-.0019.058-.0179.1142-.0179.1746a5.0372,5.0372,0,0,0,5.039,5.0368h16.405a5.0382,5.0382,0,0,0,0-10.0763H169.083V41.0721Z"/></g></g><g id="_Group_19" data-name="&lt;Group&gt;"><g id="_Group_20" data-name="&lt;Group&gt;"><path id="_Path_5" data-name="&lt;Path&gt;" class="cls-1" d="M218.1036,12.77H194.6868a4.8028,4.8028,0,0,0,0,9.6056h6.5755v31.71a5.1323,5.1323,0,0,0,10.2646,0V22.3759h6.5767a4.8028,4.8028,0,1,0,0-9.6056Z"/></g></g><g id="_Group_21" data-name="&lt;Group&gt;"><g id="_Group_22" data-name="&lt;Group&gt;"><path id="_Path_6" data-name="&lt;Path&gt;" class="cls-1" d="M90.2687,12.8438a5.2943,5.2943,0,0,0-5.2942,5.2942V41.77a7.1362,7.1362,0,0,1-2.65,5.7835,8.8615,8.8615,0,0,1-5.7667,1.9558,10.1013,10.1013,0,0,1-6.52-2.2565,7.5553,7.5553,0,0,1-3.0095-6.169l.1057-22.9455a5.2942,5.2942,0,1,0-10.5883,0V40.5816q0,8.9778,6.119,14.0425a20.2213,20.2213,0,0,0,13.3909,4.514,22.4729,22.4729,0,0,0,9.9138-2.141,5.2853,5.2853,0,0,0,9.594-3.07V18.138A5.2948,5.2948,0,0,0,90.2687,12.8438Z"/></g></g></svg>